<?xml version="1.0" encoding="UTF-8"?>
<svg id="Capa_1" xmlns="http://www.w3.org/2000/svg" version="1.1" viewBox="0 0 159.62 135.98">
  <!-- Generator: Adobe Illustrator 29.8.4, SVG Export Plug-In . SVG Version: 2.1.1 Build 6)  -->
  <defs>
    <style>
      .st0 {
        fill: #b8e91b;
      }
    </style>
  </defs>
  <g>
    <path class="st0" d="M57.74,86.56l-.08.54c-3.11,4.26-27.49-2.72-32.02-12.72-5.78-12.75-7.41-18.35-11.67-19.76-2.2-.73-6.8-1.48-7.32-1.71s-.6-.9-.16-1.24c.59-.45,1.66-1.11,3.61-1.97,3.9-1.73,13.09-7.5,17.29-11.62.43-.42,1.75-1.72,1.22-3.1-.65-1.68-3.33-1.8-6.73-1.95-1.23-.05-2.5-.11-3.55-.25-.37-.05-.5-.53-.2-.75,1.2-.9,3.85-2.5,9.69-5.15,2.45-1.12,4.71-2.36,6.35-3.49,2.26-1.56,3.17-2.78,2.98-3.94-.17-1.02-1.08-1.6-2.69-1.75-.82-.07-1.43-.17-1.88-.28-.63-.15-.81-.96-.31-1.36.34-.27.8-.6,1.43-.98,3.54-2.15,28.13-11.76,50.18-13.34-.12.21-22.24,4.73-38.32,26.32-5.25,7.05-9.66,19.14-9.51,24.4.09,3.21.64,5.5,1.35,7.14.13.29-.1.61-.42.59-3.41-.22-4.27,1.33-4.6,3.05-.55,2.84.44,4.26,2.88,5.1,8.01,2.74,15.16,6.22,22.49,18.22h0Z"/>
    <path class="st0" d="M137.12,121.05c-3.97-.85-5.76-2.9-6.08-3.95.23-2.65,1.5-7.82,4.53-13.95-1.08,10.71,1.61,13.25,5.59,16.64,1.66,1.42,1.23,2.38-4.04,1.25Z"/>
    <path class="st0" d="M152.75,60.95c-.16-2.23-.51-4.47-1.05-6.67-.17-.75-.35-1.41-.53-2.02-.75-2.6-1.79-5.24-3.1-7.86-.45-.89-3.59-5.56-12.79-8.61-7.77-2.57-9.73-.71-16.5-.33-5.66.32-8.73-.53-19.91,2.37-26.41,6.84-35.93,19.36-37.08,20.46-4.1,3.97-8.33,8.07-12.39,7.71-.05,0-.09,0-.14-.01-1.64-.19-3.07-1.11-4.26-2.73-.01-.01-.03-.02-.04-.03h0c-.38,0-2.26.58-6.13-.59-5.17-1.56-4.71,2.95-2.8,3.58,8.14,2.69,16.28,6.36,23.63,19.16,3.81,6.64,5.27,18.87-.48,29.78-2,3.8-2.81,6.6-1.56,6.71.94.08,3.06-1.38,6.73-5.11,1.93-1.97,3.48-3.94,4.71-5.81.21-.33.57-.47.91-.44.34.03.66.23.81.6,1.25,2.94,2.32,5.51,3.18,7.76,2.47,6.42,6.83,9.64,10.5,10.26.09.02.17.03.25.03.48.04.73-.06.78-.13.06-.08.12-.5-.34-1.34-1.88-3.46-.51-16.35,1.42-16.82,1.56-.39,2.42,1.74,2.91,3.74.74,3.04,1.85,7.62,5.86,11.61,2.46,2.44,4.81,4.74,8.77,6.36,2.53,1.04,4.34,1.45,5.48,1.55.64.06,1.07.01,1.28-.07.03-.01.04-.04.03-.07-.03-.17-.15-.52-.58-1.15-4.03-5.78-4.07-21.57,1.61-20.69l.07.02c1.52.46,2.07,2.28,2.98,5.3,1.01,3.34,3.03,7.4,7.65,12.48,1.31,1.44,3.45,2.79,5.74,3.62,1.15.42,2.05.6,2.71.66.15.01.28.02.4.02.45,0,.73-.48.52-.86,0,0,0,0,0-.01-1.95-3.44-4.5-9.84-3.23-18.37.35-2.34.98-4.83,1.99-7.47,1.06-2.77,2.48-5.54,4.26-8.3,1.16-1.8,2.47-3.6,3.92-5.39,1.03-1.24,1.88-2.68,3.14-3.58,9.18-6.51,11.48-18.45,10.69-29.31ZM97.35,83.62c-9.56,3.25-17.69-2.76-18.02-6.38-.33-3.62.14-11.31,2.05-15.84,1.92-4.53,8.08-12.45,12.95-12.68,5.36-.26,15.7,4.33,13.61,11.78-3.42,12.22-1.03,19.87-10.58,23.12ZM118.6,96.92c-1.59,2.6-2.83-1.82-5.09-1.67-2.26.15-2.35,1.15-4.87,2.19-2.51,1.03-4.16.16-2.19-3.71,1.97-3.87,9.72-14.18,11.02-9.05.41,1.63,2.71,9.65,1.12,12.25ZM133.28,78c-5.89,1.23-7.75-2.84-10.28-5.32-2.54-2.48-.5-10.23-2.09-17.96-1.05-5.13,3.83-7.83,9.29-7.33,5.46.49,6.98,6.64,9.6,12.96,2.63,6.32-.64,16.43-6.53,17.66Z"/>
    <path class="st0" d="M157.41,46.85h0c-.36,1.57-1.33,3.58-2.78,5.13-.67-2.18-1.52-4.38-2.55-6.57-.8-1.7-1.69-3.36-2.65-4.93-.39-.63-.96-1.75-1.57-2.92-.46-.88-.94-1.81-1.41-2.67,8.1,3.08,10.32,7.05,10.92,9.14,0,.03.01.05.02.08.18.65.21,1.12.21,1.35,0,.42-.06.89-.18,1.39Z"/>
    <path class="st0" d="M152.5,34.8c-4.24-2.64-21.51-6.65-41.09-4.58-7.32.77-14.73,1.53-22.38,5.26-10.26,5.01-20.81,10.8-28.81,21.21-3.02,3.93-7.59,7.36-10.63,7.09-.03,0-.06,0-.09,0-1.05-.12-1.98-.77-2.82-1.99,0-.08,0-.15.01-.23.29-6.04,5-18.73,14.25-32.81C73.97,8.92,94.5,3.53,106.73,3.52c26.19-.03,26.53,15.83,30.66,18.36-3.93-.3-11.81-.9-18.94-.66-7.57.26-21.69,3.68-23.42,4.11,2.1-.47,13.24-2,26.31-2.66,11.1-.56,18.33.7,20.07,1.05,4.49,2.3,9.98,6.25,11.09,11.08Z"/>
    <path class="st0" d="M102.39,1.86c-15.14,2.26-38.22,13.28-48.08,29.2-5.04,8.14-8.49,18.81-9.82,29.93-.2,0-.41,0-.63-.02-.59-.02-1.18-.07-1.75-.14l-.54-.07c-.3-.04-.59-.08-.88-.13-1.06-1.09-3.05-3.43-2.4-8.23C40.83,33.56,65.05-.57,102.39,1.86Z"/>
    <g>
      <path class="st0" d="M26.3,20.23c-3.06,1.16-5.47.88-3.37-.87s5.4-2.49,4.75-.89c-.66,1.6-1.38,1.76-1.38,1.76Z"/>
      <path class="st0" d="M10.45,43.05c-6.11,4.32-7.97-3.5-1.6-4.73,6.37-1.23,6.68,1.13,1.6,4.73Z"/>
    </g>
    <path class="st0" d="M4.75,73.31c1.43-1.4,5.42-.92,7.42.89,2,1.81,15.62,21.73,35.93,18.36,20.31-3.37,8.77,12.24-10.46,8.76-19.23-3.48-15.57-15.38-25.04-23.65-2.2-1.92-11.17-1.13-7.86-4.36Z"/>
    <path class="st0" d="M8.26,57.84c4.06,1.11,9.37,4.12,11.5,12.59s-.57,8.79-4.41,1.7c-3.76-6.93-10.08-4.37-11.97-4.45-1.89-.08-2.89-11.95,4.88-9.84Z"/>
  </g>
  <g>
    <path class="st0" d="M-200.45-494.53l-.03.22c-1.26,1.73-11.16-1.1-13-5.16-2.35-5.17-3.01-7.45-4.74-8.02-.89-.3-2.76-.6-2.97-.69s-.24-.37-.07-.5c.24-.18.67-.45,1.46-.8,1.59-.7,5.31-3.04,7.02-4.72.18-.17.71-.7.49-1.26-.26-.68-1.35-.73-2.73-.79-.5-.02-1.01-.04-1.44-.1-.15-.02-.2-.21-.08-.31.49-.37,1.56-1.01,3.93-2.09,1-.45,1.91-.96,2.58-1.42.92-.63,1.29-1.13,1.21-1.6-.07-.41-.44-.65-1.09-.71-.33-.03-.58-.07-.77-.11-.26-.06-.33-.39-.13-.55.14-.11.32-.24.58-.4,1.44-.87,11.42-4.77,20.37-5.42-.05.08-9.03,1.92-15.55,10.69-2.13,2.86-3.92,7.77-3.86,9.91.04,1.3.26,2.23.55,2.9.05.12-.04.25-.17.24-1.38-.09-1.73.54-1.87,1.24-.22,1.15.18,1.73,1.17,2.07,3.25,1.11,6.15,2.53,9.13,7.4h0Z"/>
    <path class="st0" d="M-168.23-480.53c-1.61-.35-2.34-1.18-2.47-1.6.09-1.08.61-3.17,1.84-5.66-.44,4.35.65,5.38,2.27,6.76.67.58.5.97-1.64.51Z"/>
    <path class="st0" d="M-161.88-504.93c-.06-.9-.21-1.81-.43-2.71-.07-.3-.14-.57-.22-.82-.3-1.05-.73-2.13-1.26-3.19-.18-.36-1.46-2.26-5.19-3.49-3.15-1.04-3.95-.29-6.7-.13-2.3.13-3.55-.21-8.08.96-10.72,2.78-14.59,7.86-15.05,8.31-1.66,1.61-3.38,3.28-5.03,3.13-.02,0-.04,0-.06,0-.66-.08-1.25-.45-1.73-1.11,0,0-.01,0-.02-.01h0c-.15,0-.92.24-2.49-.24-2.1-.63-1.91,1.2-1.14,1.45,3.3,1.09,6.61,2.58,9.59,7.78,1.55,2.7,2.14,7.66-.19,12.09-.81,1.54-1.14,2.68-.63,2.72.38.03,1.24-.56,2.73-2.07.78-.8,1.41-1.6,1.91-2.36.09-.13.23-.19.37-.18.14.01.27.1.33.24.51,1.19.94,2.24,1.29,3.15,1,2.61,2.77,3.91,4.26,4.16.04,0,.07.01.1.01.2.02.29-.02.32-.05.02-.03.05-.2-.14-.54-.76-1.4-.21-6.64.57-6.83.63-.16.98.7,1.18,1.52.3,1.23.75,3.1,2.38,4.71,1,.99,1.95,1.92,3.56,2.58,1.03.42,1.76.59,2.23.63.26.02.44,0,.52-.03.01,0,.02-.02.01-.03-.01-.07-.06-.21-.24-.47-1.63-2.35-1.65-8.75.65-8.4h.03c.62.2.84.93,1.21,2.16.41,1.36,1.23,3,3.11,5.07.53.58,1.4,1.13,2.33,1.47.47.17.83.24,1.1.27.06,0,.11,0,.16,0,.18,0,.3-.19.21-.35,0,0,0,0,0,0-.79-1.4-1.82-4-1.31-7.46.14-.95.4-1.96.81-3.03.43-1.12,1.01-2.25,1.73-3.37.47-.73,1-1.46,1.59-2.19.42-.5.76-1.09,1.27-1.45,3.73-2.64,4.66-7.49,4.34-11.9ZM-184.37-495.72c-3.88,1.32-7.18-1.12-7.32-2.59-.13-1.47.05-4.59.83-6.43.78-1.84,3.28-5.05,5.26-5.15,2.17-.11,6.37,1.76,5.52,4.78-1.39,4.96-.42,8.07-4.3,9.39ZM-175.75-490.32c-.64,1.05-1.15-.74-2.07-.68-.92.06-.95.47-1.98.89-1.02.42-1.69.07-.89-1.51.8-1.57,3.95-5.76,4.48-3.67.17.66,1.1,3.92.45,4.97ZM-169.79-498c-2.39.5-3.14-1.15-4.17-2.16-1.03-1.01-.2-4.15-.85-7.29-.43-2.08,1.56-3.18,3.77-2.98,2.22.2,2.83,2.7,3.9,5.26,1.07,2.56-.26,6.67-2.65,7.17Z"/>
    <path class="st0" d="M-159.99-510.65h0c-.15.64-.54,1.45-1.13,2.08-.27-.88-.62-1.78-1.03-2.67-.33-.69-.69-1.36-1.08-2-.16-.26-.39-.71-.64-1.19-.19-.36-.38-.73-.57-1.08,3.29,1.25,4.19,2.86,4.43,3.71,0,.01,0,.02,0,.03.07.26.09.45.08.55,0,.17-.02.36-.07.57Z"/>
    <path class="st0" d="M-161.98-515.54c-1.72-1.07-8.73-2.7-16.68-1.86-2.97.31-5.98.62-9.08,2.13-4.17,2.03-8.45,4.38-11.7,8.61-1.23,1.6-3.08,2.99-4.32,2.88-.01,0-.02,0-.04,0-.43-.05-.8-.31-1.15-.81,0-.03,0-.06,0-.09.12-2.45,2.03-7.6,5.79-13.32,5.29-8.05,13.62-10.23,18.59-10.24,10.63-.01,10.77,6.42,12.44,7.45-1.59-.12-4.8-.37-7.69-.27-3.07.1-8.8,1.49-9.51,1.67.85-.19,5.38-.81,10.68-1.08,4.51-.23,7.44.29,8.15.43,1.82.93,4.05,2.54,4.5,4.5Z"/>
    <path class="st0" d="M-182.33-528.92c-6.15.92-15.51,5.39-19.52,11.85-2.05,3.3-3.44,7.64-3.99,12.15-.08,0-.17,0-.25,0-.24,0-.48-.03-.71-.06l-.22-.03c-.12-.02-.24-.03-.36-.05-.43-.44-1.24-1.39-.97-3.34,1.04-7.65,10.87-21.5,26.02-20.52Z"/>
    <g>
      <path class="st0" d="M-213.22-521.45c-1.24.47-2.22.36-1.37-.35s2.19-1.01,1.93-.36-.56.72-.56.72Z"/>
      <path class="st0" d="M-219.65-512.19c-2.48,1.76-3.24-1.42-.65-1.92s2.71.46.65,1.92Z"/>
    </g>
    <path class="st0" d="M-221.96-499.91c.58-.57,2.2-.37,3.01.36s6.34,8.82,14.59,7.45,3.56,4.97-4.25,3.56-6.32-6.25-10.16-9.6c-.89-.78-4.53-.46-3.19-1.77Z"/>
    <path class="st0" d="M-220.54-506.19c1.65.45,3.8,1.67,4.67,5.11s-.23,3.57-1.79.69-4.09-1.77-4.86-1.81-1.17-4.85,1.98-3.99Z"/>
  </g>
</svg>